<?xml version="1.0" encoding="UTF-8" standalone="no"?>
<svg
   xmlns:dc="http://purl.org/dc/elements/1.1/"
   xmlns:cc="http://creativecommons.org/ns#"
   xmlns:rdf="http://www.w3.org/1999/02/22-rdf-syntax-ns#"
   xmlns:svg="http://www.w3.org/2000/svg"
   xmlns="http://www.w3.org/2000/svg"
   xmlns:sodipodi="http://sodipodi.sourceforge.net/DTD/sodipodi-0.dtd"
   xmlns:inkscape="http://www.inkscape.org/namespaces/inkscape"
   version="1.1"
   viewBox="0 0 170.42 177.05"
   id="svg8"
   sodipodi:docname="logo-white-icon.svg"
   inkscape:version="1.0.1 (3bc2e813f5, 2020-09-07)">
  <metadata
     id="metadata14">
    <rdf:RDF>
      <cc:Work
         rdf:about="">
        <dc:format>image/svg+xml</dc:format>
        <dc:type
           rdf:resource="http://purl.org/dc/dcmitype/StillImage" />
      </cc:Work>
    </rdf:RDF>
  </metadata>
  <defs
     id="defs12" />
  <sodipodi:namedview
     pagecolor="#ffffff"
     bordercolor="#666666"
     borderopacity="1"
     objecttolerance="10"
     gridtolerance="10"
     guidetolerance="10"
     inkscape:pageopacity="0"
     inkscape:pageshadow="2"
     inkscape:window-width="1920"
     inkscape:window-height="1017"
     id="namedview10"
     showgrid="false"
     inkscape:zoom="3.3947515"
     inkscape:cx="60.591197"
     inkscape:cy="95.529065"
     inkscape:window-x="1912"
     inkscape:window-y="-8"
     inkscape:window-maximized="1"
     inkscape:current-layer="g34"
     inkscape:document-rotation="0" />
  <style
     type="text/css"
     id="style2">
	.st0{fill:#4E56FF;}
	.st1{fill:#48D359;}
</style>
  <g
     id="g34"
     transform="matrix(1.2517196,0,0,1.2517196,-80.328917,-65.624935)"
     style="stroke-width:0.798901">
    <polygon
       class="st0"
       points="64.2,64 64.2,81.8 64.2,164.5 64.2,182.3 82,182.3 123.4,182.3 123.4,164.5 82,164.5 82,81.8 123.4,81.8 123.4,64 82,64 "
       id="polygon4"
       style="display:inline;stroke-width:0.798901;fill:#f1f1f1;fill-opacity:1" />
    <polygon
       class="st0"
       points="200.3,182.3 200.3,164.5 200.3,81.8 200.3,64 182.5,64 141.2,64 141.2,81.8 182.5,81.8 182.5,164.5 141.2,164.5 141.2,182.3 182.5,182.3 "
       id="polygon6"
       style="display:inline;stroke-width:0.798901;fill:#f1f1f1;fill-opacity:1" />
    <rect
       x="141.2"
       y="99.699997"
       class="st1"
       width="23.5"
       height="17.799999"
       id="rect8"
       style="display:inline;stroke-width:0.798901;fill:#ffffff;fill-opacity:1" />
    <polygon
       class="st0"
       points="123.4,164.5 141.2,164.5 141.2,99.7 99.9,99.7 99.9,117.5 123.4,117.5 "
       id="polygon10"
       style="display:inline;stroke-width:0.798901;fill:#f1f1f1;fill-opacity:1" />
  </g>
</svg>
