<?xml version="1.0" encoding="UTF-8" standalone="no"?>
<svg
   xmlns:dc="http://purl.org/dc/elements/1.1/"
   xmlns:cc="http://creativecommons.org/ns#"
   xmlns:rdf="http://www.w3.org/1999/02/22-rdf-syntax-ns#"
   xmlns:svg="http://www.w3.org/2000/svg"
   xmlns="http://www.w3.org/2000/svg"
   xmlns:sodipodi="http://sodipodi.sourceforge.net/DTD/sodipodi-0.dtd"
   xmlns:inkscape="http://www.inkscape.org/namespaces/inkscape"
   version="1.1"
   viewBox="0 0 940.56 177.05"
   id="svg18"
   sodipodi:docname="logo-white.svg"
   inkscape:version="1.0.1 (3bc2e813f5, 2020-09-07)">
  <metadata
     id="metadata24">
    <rdf:RDF>
      <cc:Work
         rdf:about="">
        <dc:format>image/svg+xml</dc:format>
        <dc:type
           rdf:resource="http://purl.org/dc/dcmitype/StillImage" />
      </cc:Work>
    </rdf:RDF>
  </metadata>
  <defs
     id="defs22" />
  <sodipodi:namedview
     pagecolor="#ffffff"
     bordercolor="#666666"
     borderopacity="1"
     objecttolerance="10"
     gridtolerance="10"
     guidetolerance="10"
     inkscape:pageopacity="0"
     inkscape:pageshadow="2"
     inkscape:window-width="1920"
     inkscape:window-height="1017"
     id="namedview20"
     showgrid="false"
     inkscape:snap-global="true"
     inkscape:zoom="1.0352195"
     inkscape:cx="460.59402"
     inkscape:cy="79.088855"
     inkscape:window-x="1912"
     inkscape:window-y="-8"
     inkscape:window-maximized="1"
     inkscape:current-layer="g34"
     inkscape:document-rotation="0" />
  <style
     type="text/css"
     id="style2">
	.st0{fill:#4E56FF;}
	.st1{fill:#48D359;}
</style>
  <g
     id="g34"
     transform="matrix(0.94507497,0,0,0.94507497,-60.756621,-27.861649)"
     style="stroke-width:1.05812">
    <polygon
       class="st0"
       points="82,164.5 82,81.8 123.4,81.8 123.4,64 82,64 64.2,64 64.2,81.8 64.2,164.5 64.2,182.3 82,182.3 123.4,182.3 123.4,164.5 "
       id="polygon4"
       style="stroke-width:1.05812;fill:#f1f1f1;fill-opacity:1" />
    <polygon
       class="st0"
       points="182.5,81.8 182.5,164.5 141.2,164.5 141.2,182.3 182.5,182.3 200.3,182.3 200.3,164.5 200.3,81.8 200.3,64 182.5,64 141.2,64 141.2,81.8 "
       id="polygon6"
       style="stroke-width:1.05812;fill:#f1f1f1;fill-opacity:1" />
    <rect
       x="141.2"
       y="99.699997"
       class="st1"
       width="23.5"
       height="17.799999"
       id="rect8"
       style="stroke-width:1.05812;fill:#ffffff;fill-opacity:1"
       sodipodi:insensitive="true" />
    <polygon
       class="st0"
       points="141.2,164.5 141.2,99.7 99.9,99.7 99.9,117.5 123.4,117.5 123.4,164.5 "
       id="polygon10"
       style="stroke-width:1.05812;fill:#f1f1f1;fill-opacity:1" />
    <path
       class="st0"
       d="m 333.4,100.4 h 30.3 c 9.8,0 16.6,2.6 20.9,7 3.8,3.7 5.7,8.6 5.7,14.9 v 0.2 c 0,9.8 -5.2,16.3 -13.2,19.7 l 15.3,22.3 H 371.9 L 359,145.1 h -0.2 -7.6 v 19.4 h -17.7 v -64.1 z m 29.5,30.8 c 6,0 9.5,-2.9 9.5,-7.6 v -0.2 c 0,-5 -3.7,-7.6 -9.6,-7.6 h -11.6 v 15.4 z"
       id="path12-3"
       style="stroke-width:1.05812;fill:#f1f1f1;fill-opacity:1" />
    <path
       class="st0"
       d="M 415.5,100.4 H 467 v 15.1 h -33.9 v 9.7 h 30.8 v 14 h -30.8 v 10.2 h 34.4 v 15.1 h -52 z"
       id="path14-4"
       style="stroke-width:1.05812;fill:#f1f1f1;fill-opacity:1" />
    <path
       class="st0"
       d="M 493.2,100.4 H 511 v 64.1 h -17.9 v -64.1 z"
       id="path16"
       style="stroke-width:1.05812;fill:#f1f1f1;fill-opacity:1" />
    <path
       class="st0"
       d="m 539,100.4 h 16.6 l 26.4,33.9 v -33.9 h 17.6 v 64.1 H 584 l -27.4,-35.1 v 35.1 H 539 Z"
       id="path18"
       style="stroke-width:1.05812;fill:#f1f1f1;fill-opacity:1" />
    <path
       class="st0"
       d="m 649.3,100 h 17.1 l 27.3,64.5 h -19 L 670,153 h -24.7 l -4.6,11.4 H 622 Z m 15.6,39.2 -7.1,-18.2 -7.2,18.2 z"
       id="path20"
       style="stroke-width:1.05812;fill:#f1f1f1;fill-opacity:1" />
    <path
       class="st0"
       d="m 711.9,100.4 h 18.8 l 11.2,37.1 12.4,-37.2 h 15.3 l 12.4,37.2 11.2,-37.1 h 18.4 L 790,164.9 H 774.5 L 761.6,128 748.8,164.9 h -15.5 z"
       id="path22"
       style="stroke-width:1.05812;fill:#f1f1f1;fill-opacity:1" />
    <path
       class="st0"
       d="m 834.8,100.4 h 51.5 v 15.1 h -33.9 v 9.7 h 30.8 v 14 h -30.8 v 10.2 h 34.4 v 15.1 h -52 z"
       id="path24"
       style="stroke-width:1.05812;fill:#f1f1f1;fill-opacity:1" />
    <path
       class="st0"
       d="M 912.1,100.4 H 945 c 8,0 13.7,2 17.5,5.8 2.6,2.6 4.1,6 4.1,10.3 v 0.2 c 0,7.4 -4.2,11.8 -9.9,14.3 7.8,2.6 12.7,7 12.7,15.6 v 0.2 c 0,11 -9,17.7 -24.3,17.7 h -33 z m 28.5,25.5 c 5.4,0 8.4,-1.8 8.4,-5.6 v -0.2 c 0,-3.5 -2.7,-5.5 -8,-5.5 h -11.5 v 11.3 z m 2.6,24.3 c 5.4,0 8.5,-2.1 8.5,-5.9 v -0.2 c 0,-3.5 -2.8,-5.8 -8.7,-5.8 h -13.6 v 11.8 h 13.8 z"
       id="path26"
       style="stroke-width:1.05812;fill:#f1f1f1;fill-opacity:1" />
    <rect
       x="994.79999"
       y="144.3"
       class="st1"
       width="64.800003"
       height="17.799999"
       id="rect28"
       style="stroke-width:1.05812;fill:#ffffff;fill-opacity:1"
       sodipodi:insensitive="true" />
    <polygon
       class="st0"
       points="272.3,118.2 272.3,164.5 290.1,164.5 290.1,118.2 313.6,118.2 313.6,100.4 290.1,100.4 248.8,100.4 248.8,118.2 "
       id="polygon30"
       style="stroke-width:1.05812;fill:#f1f1f1;fill-opacity:1" />
    <polyline
       class="st0"
       points="730.3,100.4 750.3,160.6 735.9,157.9 733.3,164.9 711.9,100.4  "
       id="polyline32"
       style="stroke-width:1.05812;fill:#f1f1f1;fill-opacity:1" />
  </g>
</svg>
